<?xml version="1.0" encoding="UTF-8" standalone="no"?>
<!DOCTYPE svg PUBLIC "-//W3C//DTD SVG 1.1//EN"
 "http://www.w3.org/Graphics/SVG/1.1/DTD/svg11.dtd">
<!-- Generated by graphviz version 12.2.0 (0)
 -->
<!-- Pages: 1 -->
<svg width="234pt" height="548pt"
 viewBox="0.00 0.00 234.00 548.00" xmlns="http://www.w3.org/2000/svg" xmlns:xlink="http://www.w3.org/1999/xlink">
<g id="graph0" class="graph" transform="scale(1 1) rotate(0) translate(4 544)">
<polygon fill="white" stroke="none" points="-4,4 -4,-544 230,-544 230,4 -4,4"/>
<!-- 0 -->
<g id="node1" class="node">
<title>0</title>
<ellipse fill="none" stroke="black" cx="167" cy="-522" rx="27" ry="18"/>
<text text-anchor="middle" x="167" y="-517.33" font-family="Times,serif" font-size="14.00">0</text>
</g>
<!-- 1 -->
<g id="node2" class="node">
<title>1</title>
<ellipse fill="none" stroke="black" cx="167" cy="-450" rx="27" ry="18"/>
<text text-anchor="middle" x="167" y="-445.32" font-family="Times,serif" font-size="14.00">1</text>
</g>
<!-- 0&#45;&gt;1 -->
<g id="edge1" class="edge">
<title>0&#45;&gt;1</title>
<path fill="none" stroke="black" d="M167,-503.7C167,-496.41 167,-487.73 167,-479.54"/>
<polygon fill="black" stroke="black" points="170.5,-479.62 167,-469.62 163.5,-479.62 170.5,-479.62"/>
</g>
<!-- 2 -->
<g id="node3" class="node">
<title>2</title>
<ellipse fill="none" stroke="black" cx="167" cy="-378" rx="27" ry="18"/>
<text text-anchor="middle" x="167" y="-373.32" font-family="Times,serif" font-size="14.00">2</text>
</g>
<!-- 1&#45;&gt;2 -->
<g id="edge2" class="edge">
<title>1&#45;&gt;2</title>
<path fill="none" stroke="black" d="M167,-431.7C167,-424.41 167,-415.73 167,-407.54"/>
<polygon fill="black" stroke="black" points="170.5,-407.62 167,-397.62 163.5,-407.62 170.5,-407.62"/>
</g>
<!-- 3 -->
<g id="node4" class="node">
<title>3</title>
<ellipse fill="none" stroke="black" cx="99" cy="-162" rx="27" ry="18"/>
<text text-anchor="middle" x="99" y="-157.32" font-family="Times,serif" font-size="14.00">3</text>
</g>
<!-- 1&#45;&gt;3 -->
<g id="edge3" class="edge">
<title>1&#45;&gt;3</title>
<path fill="none" stroke="black" d="M153.9,-433.84C145.96,-423.78 136.34,-409.91 131,-396 104.18,-326.14 99.36,-236.89 98.79,-191.82"/>
<polygon fill="black" stroke="black" points="102.29,-191.82 98.73,-181.84 95.29,-191.86 102.29,-191.82"/>
</g>
<!-- 9 -->
<g id="node5" class="node">
<title>9</title>
<ellipse fill="none" stroke="black" cx="167" cy="-306" rx="27" ry="18"/>
<text text-anchor="middle" x="167" y="-301.32" font-family="Times,serif" font-size="14.00">9</text>
</g>
<!-- 2&#45;&gt;9 -->
<g id="edge4" class="edge">
<title>2&#45;&gt;9</title>
<path fill="none" stroke="black" d="M167,-359.7C167,-352.41 167,-343.73 167,-335.54"/>
<polygon fill="black" stroke="black" points="170.5,-335.62 167,-325.62 163.5,-335.62 170.5,-335.62"/>
</g>
<!-- 4 -->
<g id="node6" class="node">
<title>4</title>
<ellipse fill="none" stroke="black" cx="99" cy="-90" rx="27" ry="18"/>
<text text-anchor="middle" x="99" y="-85.33" font-family="Times,serif" font-size="14.00">4</text>
</g>
<!-- 3&#45;&gt;4 -->
<g id="edge5" class="edge">
<title>3&#45;&gt;4</title>
<path fill="none" stroke="black" d="M99,-143.7C99,-136.41 99,-127.73 99,-119.54"/>
<polygon fill="black" stroke="black" points="102.5,-119.62 99,-109.62 95.5,-119.62 102.5,-119.62"/>
</g>
<!-- 5 -->
<g id="node7" class="node">
<title>5</title>
<ellipse fill="none" stroke="black" cx="27" cy="-90" rx="27" ry="18"/>
<text text-anchor="middle" x="27" y="-85.33" font-family="Times,serif" font-size="14.00">5</text>
</g>
<!-- 3&#45;&gt;5 -->
<g id="edge6" class="edge">
<title>3&#45;&gt;5</title>
<path fill="none" stroke="black" d="M84.08,-146.5C74.23,-136.92 61.14,-124.19 49.97,-113.34"/>
<polygon fill="black" stroke="black" points="52.59,-111 42.98,-106.54 47.71,-116.02 52.59,-111"/>
</g>
<!-- 8 -->
<g id="node11" class="node">
<title>8</title>
<ellipse fill="none" stroke="black" cx="167" cy="-234" rx="27" ry="18"/>
<text text-anchor="middle" x="167" y="-229.32" font-family="Times,serif" font-size="14.00">8</text>
</g>
<!-- 9&#45;&gt;8 -->
<g id="edge12" class="edge">
<title>9&#45;&gt;8</title>
<path fill="none" stroke="black" d="M167,-287.7C167,-280.41 167,-271.73 167,-263.54"/>
<polygon fill="black" stroke="black" points="170.5,-263.62 167,-253.62 163.5,-263.62 170.5,-263.62"/>
</g>
<!-- 7 -->
<g id="node8" class="node">
<title>7</title>
<ellipse fill="none" stroke="black" cx="81" cy="-18" rx="27" ry="18"/>
<text text-anchor="middle" x="81" y="-13.32" font-family="Times,serif" font-size="14.00">7</text>
</g>
<!-- 4&#45;&gt;7 -->
<g id="edge7" class="edge">
<title>4&#45;&gt;7</title>
<path fill="none" stroke="black" d="M94.64,-72.05C92.7,-64.49 90.35,-55.37 88.16,-46.85"/>
<polygon fill="black" stroke="black" points="91.57,-46.07 85.69,-37.25 84.79,-47.81 91.57,-46.07"/>
</g>
<!-- 5&#45;&gt;7 -->
<g id="edge8" class="edge">
<title>5&#45;&gt;7</title>
<path fill="none" stroke="black" d="M38.98,-73.46C45.77,-64.67 54.4,-53.48 62.08,-43.53"/>
<polygon fill="black" stroke="black" points="64.79,-45.75 68.12,-35.69 59.25,-41.47 64.79,-45.75"/>
</g>
<!-- 6 -->
<g id="node9" class="node">
<title>6</title>
<ellipse fill="none" stroke="black" cx="171" cy="-162" rx="27" ry="18"/>
<text text-anchor="middle" x="171" y="-157.32" font-family="Times,serif" font-size="14.00">6</text>
</g>
<!-- 11 -->
<g id="node10" class="node">
<title>11</title>
<ellipse fill="none" stroke="black" cx="171" cy="-90" rx="27" ry="18"/>
<text text-anchor="middle" x="171" y="-85.33" font-family="Times,serif" font-size="14.00">11</text>
</g>
<!-- 6&#45;&gt;11 -->
<g id="edge9" class="edge">
<title>6&#45;&gt;11</title>
<path fill="none" stroke="black" d="M171,-143.7C171,-136.41 171,-127.73 171,-119.54"/>
<polygon fill="black" stroke="black" points="174.5,-119.62 171,-109.62 167.5,-119.62 174.5,-119.62"/>
</g>
<!-- 10 -->
<g id="node12" class="node">
<title>10</title>
<ellipse fill="none" stroke="black" cx="189" cy="-18" rx="27" ry="18"/>
<text text-anchor="middle" x="189" y="-13.32" font-family="Times,serif" font-size="14.00">10</text>
</g>
<!-- 11&#45;&gt;10 -->
<g id="edge14" class="edge">
<title>11&#45;&gt;10</title>
<path fill="none" stroke="black" d="M175.36,-72.05C177.3,-64.49 179.65,-55.37 181.84,-46.85"/>
<polygon fill="black" stroke="black" points="185.21,-47.81 184.31,-37.25 178.43,-46.07 185.21,-47.81"/>
</g>
<!-- 8&#45;&gt;3 -->
<g id="edge10" class="edge">
<title>8&#45;&gt;3</title>
<path fill="none" stroke="black" d="M152.91,-218.5C143.7,-209.02 131.48,-196.44 121.01,-185.66"/>
<polygon fill="black" stroke="black" points="123.6,-183.31 114.13,-178.57 118.58,-188.18 123.6,-183.31"/>
</g>
<!-- 8&#45;&gt;6 -->
<g id="edge11" class="edge">
<title>8&#45;&gt;6</title>
<path fill="none" stroke="black" d="M167.99,-215.7C168.41,-208.41 168.9,-199.73 169.37,-191.54"/>
<polygon fill="black" stroke="black" points="172.86,-191.8 169.94,-181.62 165.87,-191.4 172.86,-191.8"/>
</g>
<!-- 10&#45;&gt;1 -->
<g id="edge13" class="edge">
<title>10&#45;&gt;1</title>
<path fill="none" stroke="black" d="M196.31,-35.68C207.09,-61.85 226,-114.38 226,-161 226,-307 226,-307 226,-307 226,-347.86 219.84,-358.78 203,-396 198.54,-405.87 192.26,-415.89 186.2,-424.53"/>
<polygon fill="black" stroke="black" points="183.53,-422.26 180.44,-432.39 189.18,-426.39 183.53,-422.26"/>
</g>
</g>
</svg>
